<svg width="19" height="18" viewBox="0 0 19 18" fill="none" xmlns="http://www.w3.org/2000/svg">
<path d="M9.09136 0.737723C9.24199 0.279054 9.89083 0.279055 10.0414 0.737725L11.3567 4.74303C11.4453 5.01258 11.7401 5.15455 12.006 5.0557L15.9576 3.58677C16.4101 3.41855 16.8146 3.92584 16.5499 4.32957L14.2385 7.85518C14.083 8.09245 14.1558 8.41146 14.3989 8.55774L18.0111 10.7313C18.4247 10.9802 18.2803 11.6128 17.7997 11.6576L13.6021 12.0486C13.3196 12.075 13.1156 12.3308 13.1528 12.612L13.7056 16.7914C13.7689 17.27 13.1843 17.5515 12.8496 17.2036L9.92672 14.1656C9.73001 13.9612 9.4028 13.9612 9.20609 14.1656L6.28322 17.2036C5.9485 17.5515 5.36392 17.27 5.42722 16.7914L5.98002 12.612C6.01722 12.3308 5.81321 12.075 5.53072 12.0486L1.33315 11.6576C0.852463 11.6128 0.708085 10.9802 1.12174 10.7313L4.73394 8.55774C4.97704 8.41146 5.04985 8.09245 4.8943 7.85518L2.58289 4.32957C2.3182 3.92584 2.72275 3.41855 3.17526 3.58677L7.12681 5.0557C7.39274 5.15455 7.68755 5.01258 7.77607 4.74303L9.09136 0.737723Z" fill="#F37761"/>
</svg>
